<svg width="137" height="40" viewBox="0 0 137 40" fill="none" xmlns="http://www.w3.org/2000/svg">
<rect x="0.5" y="0.5" width="136" height="39" rx="4.5" fill="#2C2C2C"/>
<rect x="0.5" y="0.5" width="136" height="39" rx="4.5" fill="url(#paint0_linear)"/>
<path d="M50.8344 30.9592H48.4422L47.1319 26.9186H42.5772L41.329 30.9592H39.0001L43.5126 17.2033H46.2997L50.8344 30.9592ZM46.7369 25.2234L45.5519 21.6315C45.4265 21.2645 45.1916 20.4004 44.8451 19.0401H44.8029C44.6649 19.6252 44.4427 20.4893 44.1372 21.6315L42.9733 25.2234H46.7369Z" fill="white"/>
<path d="M62.4391 25.877C62.4391 27.5639 61.9746 28.8973 61.0455 29.8762C60.2134 30.7476 59.18 31.1828 57.9466 31.1828C56.6152 31.1828 55.6587 30.7135 55.0762 29.7749H55.0341V35H52.7884V24.3048C52.7884 23.2443 52.7599 22.1559 52.7051 21.0395H54.6802L54.8055 22.6117H54.8476C55.5966 21.4271 56.7331 20.8359 58.2584 20.8359C59.4508 20.8359 60.4462 21.2979 61.2425 22.223C62.0409 23.1492 62.4391 24.3668 62.4391 25.877ZM60.1512 25.9576C60.1512 24.9922 59.93 24.1963 59.4855 23.5699C58.9999 22.9166 58.3479 22.59 57.5305 22.59C56.9764 22.59 56.4729 22.7719 56.0232 23.1306C55.5723 23.4924 55.2774 23.9647 55.1394 24.5498C55.0699 24.8227 55.0351 25.0459 55.0351 25.2217V26.8755C55.0351 27.597 55.2606 28.2058 55.7114 28.703C56.1622 29.2002 56.7479 29.4483 57.4684 29.4483C58.3142 29.4483 58.9725 29.1278 59.4434 28.489C59.9153 27.8492 60.1512 27.0058 60.1512 25.9576Z" fill="white"/>
<path d="M74.0648 25.877C74.0648 27.5639 73.6002 28.8973 72.6701 29.8762C71.839 30.7476 70.8057 31.1828 69.5722 31.1828C68.2408 31.1828 67.2844 30.7135 66.7029 29.7749H66.6608V35H64.4151V24.3048C64.4151 23.2443 64.3866 22.1559 64.3318 21.0395H66.3069L66.4322 22.6117H66.4743C67.2222 21.4271 68.3588 20.8359 69.8851 20.8359C71.0764 20.8359 72.0718 21.2979 72.8703 22.223C73.6655 23.1492 74.0648 24.3668 74.0648 25.877ZM71.7769 25.9576C71.7769 24.9922 71.5546 24.1963 71.1101 23.5699C70.6245 22.9166 69.9746 22.59 69.1562 22.59C68.6011 22.59 68.0986 22.7719 67.6478 23.1306C67.1969 23.4924 66.9031 23.9647 66.7651 24.5498C66.6966 24.8227 66.6608 25.0459 66.6608 25.2217V26.8755C66.6608 27.597 66.8862 28.2058 67.3349 28.703C67.7858 29.1992 68.3714 29.4483 69.094 29.4483C69.9399 29.4483 70.5982 29.1278 71.069 28.489C71.5409 27.8492 71.7769 27.0058 71.7769 25.9576Z" fill="white"/>
<path d="M87.0631 27.1008C87.0631 28.2709 86.6491 29.2229 85.8181 29.9578C84.9048 30.761 83.6334 31.162 81.9997 31.162C80.4913 31.162 79.2821 30.8768 78.3667 30.3051L78.8871 28.4683C79.873 29.0534 80.9548 29.3469 82.1335 29.3469C82.9793 29.3469 83.6376 29.1588 84.1106 28.7846C84.5814 28.4105 84.8163 27.9081 84.8163 27.2817C84.8163 26.7235 84.6225 26.2532 84.2338 25.8718C83.8472 25.4904 83.2015 25.1358 82.2999 24.8082C79.8456 23.9099 78.6195 22.5941 78.6195 20.8637C78.6195 19.7329 79.0493 18.8057 79.9099 18.0842C80.7673 17.3617 81.9112 17.001 83.3416 17.001C84.6172 17.001 85.6769 17.2191 86.5227 17.6542L85.9613 19.4507C85.1713 19.029 84.2781 18.8181 83.2784 18.8181C82.4884 18.8181 81.8712 19.0094 81.4288 19.3898C81.0548 19.7298 80.8673 20.1443 80.8673 20.6353C80.8673 21.179 81.0812 21.6286 81.5109 21.9822C81.8849 22.3088 82.5643 22.6623 83.5502 23.0437C84.7563 23.5202 85.6422 24.0774 86.212 24.7162C86.7798 25.3529 87.0631 26.1499 87.0631 27.1008Z" fill="white"/>
<path d="M94.488 22.6933H92.0127V27.5091C92.0127 28.734 92.4487 29.3459 93.323 29.3459C93.7243 29.3459 94.0572 29.3118 94.3205 29.2436L94.3827 30.9171C93.9403 31.0793 93.3578 31.161 92.6362 31.161C91.7493 31.161 91.0562 30.8954 90.5559 30.3651C90.0577 29.8338 89.807 28.9428 89.807 27.691V22.6912H88.3323V21.0374H89.807V19.2213L92.0127 18.568V21.0374H94.488V22.6933Z" fill="white"/>
<path d="M105.657 25.9173C105.657 27.442 105.212 28.6937 104.325 29.6726C103.395 30.6804 102.161 31.1828 100.622 31.1828C99.1385 31.1828 97.9577 30.7 97.0771 29.7346C96.1965 28.7692 95.7562 27.5505 95.7562 26.0817C95.7562 24.5446 96.2092 23.2856 97.1182 22.3068C98.0251 21.3269 99.2491 20.8369 100.788 20.8369C102.271 20.8369 103.465 21.3196 104.365 22.2861C105.227 23.2236 105.657 24.434 105.657 25.9173ZM103.327 25.9886C103.327 25.0739 103.128 24.2893 102.724 23.635C102.253 22.8432 101.58 22.4484 100.708 22.4484C99.8053 22.4484 99.1196 22.8443 98.6487 23.635C98.2453 24.2904 98.0462 25.0873 98.0462 26.03C98.0462 26.9448 98.2453 27.7293 98.6487 28.3826C99.1343 29.1744 99.8127 29.5692 100.688 29.5692C101.545 29.5692 102.218 29.1661 102.704 28.3619C103.118 27.6952 103.327 26.9024 103.327 25.9886Z" fill="white"/>
<path d="M112.956 22.9776C112.734 22.9373 112.497 22.9166 112.248 22.9166C111.458 22.9166 110.847 23.2091 110.418 23.7952C110.044 24.3121 109.856 24.9653 109.856 25.754V30.9585H107.612L107.633 24.1632C107.633 23.02 107.604 21.9791 107.548 21.0405H109.504L109.587 22.9383H109.649C109.886 22.2861 110.26 21.761 110.772 21.3672C111.272 21.0126 111.812 20.8359 112.395 20.8359C112.602 20.8359 112.79 20.8503 112.956 20.8762V22.9776Z" fill="white"/>
<path d="M123 25.5297C123 25.9245 122.974 26.2574 122.918 26.5292H116.181C116.207 27.5091 116.533 28.2585 117.158 28.7754C117.726 29.2374 118.46 29.4689 119.362 29.4689C120.359 29.4689 121.269 29.3129 122.088 28.9997L122.44 30.5295C121.483 30.9388 120.354 31.1424 119.051 31.1424C117.484 31.1424 116.253 30.6897 115.358 29.7852C114.465 28.8808 114.017 27.6663 114.017 26.1426C114.017 24.6469 114.433 23.4014 115.266 22.4081C116.139 21.3475 117.317 20.8173 118.8 20.8173C120.257 20.8173 121.36 21.3475 122.109 22.4081C122.702 23.2505 123 24.2924 123 25.5297ZM120.859 24.9581C120.873 24.3048 120.727 23.7404 120.423 23.2639C120.034 22.651 119.437 22.345 118.633 22.345C117.899 22.345 117.301 22.6437 116.845 23.2432C116.471 23.7198 116.249 24.2914 116.181 24.957H120.859V24.9581Z" fill="white"/>
<path d="M46.7089 8.46149C46.7089 9.64119 46.3492 10.5292 45.6308 11.1256C44.9654 11.6758 44.0199 11.9515 42.7951 11.9515C42.1878 11.9515 41.6681 11.9254 41.233 11.8733V5.42757C41.8006 5.33736 42.412 5.29126 43.0722 5.29126C44.2389 5.29126 45.1183 5.54083 45.7113 6.03997C46.3757 6.60426 46.7089 7.4111 46.7089 8.46149ZM45.5829 8.49056C45.5829 7.72582 45.3771 7.13948 44.9654 6.73054C44.5538 6.32261 43.9526 6.11815 43.1609 6.11815C42.8246 6.11815 42.5383 6.1402 42.3009 6.1863V11.0865C42.4323 11.1065 42.6728 11.1156 43.0223 11.1156C43.8395 11.1156 44.4702 10.892 44.9145 10.445C45.3588 9.998 45.5829 9.34651 45.5829 8.49056Z" fill="white"/>
<path d="M52.6789 9.49124C52.6789 10.2179 52.4679 10.8133 52.0461 11.2803C51.6039 11.7604 51.018 12 50.2864 12C49.5813 12 49.0198 11.7704 48.601 11.3094C48.1833 10.8493 47.9744 10.269 47.9744 9.56942C47.9744 8.83775 48.1894 8.23738 48.6214 7.77131C49.0534 7.30525 49.6342 7.07172 50.3658 7.07172C51.071 7.07172 51.6375 7.30124 52.0665 7.76129C52.474 8.20831 52.6789 8.78563 52.6789 9.49124ZM51.5713 9.52531C51.5713 9.08932 51.4755 8.71547 51.2849 8.40376C51.0608 8.0269 50.7418 7.83847 50.3271 7.83847C49.8981 7.83847 49.5721 8.0269 49.3479 8.40376C49.1563 8.71547 49.0616 9.09533 49.0616 9.54436C49.0616 9.98035 49.1574 10.3542 49.3479 10.6659C49.5792 11.0428 49.9012 11.2312 50.3169 11.2312C50.7245 11.2312 51.0445 11.0398 51.2747 10.6559C51.4724 10.3382 51.5713 9.96131 51.5713 9.52531Z" fill="white"/>
<path d="M60.6838 7.16791L59.1808 11.8927H58.2026L57.5801 9.84101C57.4221 9.32884 57.2937 8.81968 57.1939 8.31452H57.1745C57.0818 8.83371 56.9534 9.34187 56.7883 9.84101L56.127 11.8927H55.1376L53.7244 7.16791H54.8218L55.3649 9.41403C55.4963 9.94525 55.6043 10.4514 55.6909 10.9305H55.7103C55.7898 10.5356 55.9212 10.0324 56.1067 9.42406L56.7883 7.16891H57.6585L58.3117 9.37595C58.4696 9.91418 58.598 10.4324 58.6968 10.9315H58.7264C58.7987 10.4454 58.9078 9.92721 59.0524 9.37595L59.6353 7.16891H60.6838V7.16791Z" fill="white"/>
<path d="M66.2197 11.8927H65.1518V9.18656C65.1518 8.35266 64.8298 7.9357 64.1838 7.9357C63.8669 7.9357 63.6112 8.04997 63.4125 8.27949C63.2158 8.50901 63.116 8.77963 63.116 9.08934V11.8917H62.0481V8.51803C62.0481 8.10309 62.0349 7.65306 62.0094 7.16595H62.9478L62.9978 7.90463H63.0273C63.1516 7.67511 63.3371 7.48568 63.5806 7.33433C63.87 7.15793 64.194 7.06873 64.5486 7.06873C64.9969 7.06873 65.3699 7.21105 65.6664 7.4967C66.0353 7.8465 66.2197 8.36869 66.2197 9.06228V11.8927Z" fill="white"/>
<path d="M69.1644 11.8927H68.0976V5H69.1644V11.8927Z" fill="white"/>
<path d="M75.4514 9.49124C75.4514 10.2179 75.2405 10.8133 74.8187 11.2803C74.3764 11.7604 73.7895 12 73.0589 12C72.3528 12 71.7914 11.7704 71.3736 11.3094C70.9558 10.8493 70.7469 10.269 70.7469 9.56942C70.7469 8.83775 70.9619 8.23738 71.394 7.77131C71.826 7.30525 72.4068 7.07172 73.1374 7.07172C73.8435 7.07172 74.409 7.30124 74.839 7.76129C75.2466 8.20831 75.4514 8.78563 75.4514 9.49124ZM74.3428 9.52531C74.3428 9.08932 74.247 8.71547 74.0565 8.40376C73.8333 8.0269 73.5134 7.83847 73.0997 7.83847C72.6697 7.83847 72.3436 8.0269 72.1205 8.40376C71.9289 8.71547 71.8342 9.09533 71.8342 9.54436C71.8342 9.98035 71.9299 10.3542 72.1205 10.6659C72.3518 11.0428 72.6738 11.2312 73.0895 11.2312C73.4971 11.2312 73.816 11.0398 74.0463 10.6559C74.245 10.3382 74.3428 9.96131 74.3428 9.52531Z" fill="white"/>
<path d="M80.6195 11.8927H79.6607L79.5812 11.3485H79.5517C79.2236 11.7825 78.7559 12 78.1486 12C77.6952 12 77.3283 11.8566 77.0522 11.572C76.8015 11.3134 76.6762 10.9917 76.6762 10.6098C76.6762 10.0325 76.9208 9.59247 77.4129 9.28777C77.904 8.98308 78.5949 8.83374 79.4844 8.84075V8.75255C79.4844 8.13013 79.1523 7.81942 78.4869 7.81942C78.0131 7.81942 77.5953 7.93669 77.2346 8.16922L77.0176 7.47965C77.4639 7.20803 78.0151 7.07172 78.6652 7.07172C79.9205 7.07172 80.5502 7.7232 80.5502 9.02618V10.7661C80.5502 11.2382 80.5737 11.6141 80.6195 11.8927ZM79.5109 10.269V9.54035C78.333 9.5203 77.7441 9.83803 77.7441 10.4925C77.7441 10.7391 77.8113 10.9235 77.9489 11.0468C78.0864 11.1701 78.2617 11.2312 78.4706 11.2312C78.7049 11.2312 78.924 11.158 79.1237 11.0127C79.3245 10.8664 79.4477 10.681 79.4936 10.4534C79.5048 10.4023 79.5109 10.3402 79.5109 10.269Z" fill="white"/>
<path d="M86.6874 11.8927H85.7398L85.6898 11.134H85.6603C85.3576 11.7113 84.8421 12 84.1176 12C83.5388 12 83.0569 11.7765 82.6748 11.3294C82.2927 10.8824 82.1021 10.3021 82.1021 9.58947C82.1021 8.82473 82.309 8.20531 82.7247 7.73223C83.1272 7.29123 83.6203 7.07073 84.2073 7.07073C84.8522 7.07073 85.3036 7.28421 85.5604 7.71219H85.5808V5H86.6497V10.6198C86.6497 11.0799 86.6619 11.5038 86.6874 11.8927ZM85.5808 9.90018V9.11239C85.5808 8.97607 85.5706 8.86582 85.5512 8.78163C85.4911 8.52905 85.3617 8.31657 85.1651 8.14518C84.9664 7.97379 84.7269 7.88759 84.4508 7.88759C84.0524 7.88759 83.7406 8.04294 83.5113 8.35466C83.2841 8.66637 83.1689 9.06427 83.1689 9.55038C83.1689 10.0175 83.278 10.3963 83.497 10.688C83.7283 10.9987 84.0401 11.154 84.4304 11.154C84.7809 11.154 85.0611 11.0247 85.2741 10.7652C85.4799 10.5256 85.5808 10.237 85.5808 9.90018Z" fill="white"/>
<path d="M95.8202 9.49124C95.8202 10.2179 95.6093 10.8133 95.1874 11.2803C94.7452 11.7604 94.1603 12 93.4277 12C92.7236 12 92.1622 11.7704 91.7424 11.3094C91.3246 10.8493 91.1157 10.269 91.1157 9.56942C91.1157 8.83775 91.3307 8.23738 91.7628 7.77131C92.1948 7.30525 92.7756 7.07172 93.5082 7.07172C94.2123 7.07172 94.7799 7.30124 95.2078 7.76129C95.6154 8.20831 95.8202 8.78563 95.8202 9.49124ZM94.7136 9.52531C94.7136 9.08932 94.6178 8.71547 94.4273 8.40376C94.2021 8.0269 93.8842 7.83847 93.4685 7.83847C93.0405 7.83847 92.7144 8.0269 92.4893 8.40376C92.2977 8.71547 92.2029 9.09533 92.2029 9.54436C92.2029 9.98035 92.2987 10.3542 92.4893 10.6659C92.7206 11.0428 93.0426 11.2312 93.4583 11.2312C93.8659 11.2312 94.1868 11.0398 94.4171 10.6559C94.6138 10.3382 94.7136 9.96131 94.7136 9.52531Z" fill="white"/>
<path d="M101.562 11.8927H100.495V9.18656C100.495 8.35266 100.173 7.9357 99.5261 7.9357C99.2092 7.9357 98.9534 8.04997 98.7557 8.27949C98.5581 8.50901 98.4592 8.77963 98.4592 9.08934V11.8917H97.3904V8.51803C97.3904 8.10309 97.3781 7.65306 97.3527 7.16595H98.2901L98.34 7.90463H98.3696C98.4949 7.67511 98.6803 7.48568 98.9229 7.33433C99.2133 7.15793 99.5363 7.06873 99.8919 7.06873C100.339 7.06873 100.712 7.21105 101.009 7.4967C101.379 7.8465 101.562 8.36869 101.562 9.06228V11.8927Z" fill="white"/>
<path d="M108.749 7.95475H107.573V10.25C107.573 10.8333 107.782 11.125 108.195 11.125C108.387 11.125 108.546 11.109 108.671 11.0759L108.699 11.8727C108.488 11.9509 108.211 11.99 107.869 11.99C107.447 11.99 107.119 11.8637 106.882 11.6111C106.644 11.3585 106.525 10.9336 106.525 10.3372V7.95475H105.823V7.16796H106.525V6.30198L107.572 5.99127V7.16696H108.748V7.95475H108.749Z" fill="white"/>
<path d="M114.402 11.8927H113.333V9.2066C113.333 8.35967 113.011 7.9357 112.366 7.9357C111.87 7.9357 111.532 8.18126 111.347 8.67238C111.315 8.77562 111.297 8.9019 111.297 9.05024V11.8917H110.23V5H111.297V7.8475H111.317C111.653 7.32932 112.135 7.07072 112.76 7.07072C113.202 7.07072 113.568 7.21305 113.858 7.4987C114.22 7.85451 114.402 8.38372 114.402 9.08332V11.8927Z" fill="white"/>
<path d="M120.233 9.3068C120.233 9.49523 120.219 9.6536 120.193 9.78289H116.991C117.005 10.25 117.158 10.6058 117.454 10.8523C117.725 11.0728 118.075 11.1831 118.503 11.1831C118.977 11.1831 119.409 11.1089 119.798 10.9596L119.965 11.6892C119.509 11.8837 118.974 11.9809 118.353 11.9809C117.609 11.9809 117.023 11.7654 116.599 11.3344C116.173 10.9034 115.963 10.3251 115.963 9.59947C115.963 8.88685 116.159 8.29349 116.556 7.82041C116.969 7.31526 117.529 7.06268 118.235 7.06268C118.926 7.06268 119.45 7.31526 119.805 7.82041C120.091 8.22133 120.233 8.71746 120.233 9.3068ZM119.214 9.03518C119.222 8.72347 119.152 8.45486 119.007 8.22834C118.822 7.93668 118.539 7.79034 118.157 7.79034C117.809 7.79034 117.525 7.93267 117.308 8.21832C117.13 8.44584 117.025 8.71746 116.991 9.03518H119.214Z" fill="white"/>
<path fill-rule="evenodd" clip-rule="evenodd" d="M23.0765 11.8321C23.9165 10.818 24.4805 9.40502 24.3265 8C23.1185 8.049 21.6565 8.80501 20.7915 9.81903C20.0144 10.717 19.3344 12.1541 19.5184 13.5311C20.8645 13.6361 22.2405 12.8471 23.0785 11.8321H23.0765ZM26.0985 20.7502C26.1325 24.3823 29.2846 25.5913 29.3186 25.6073C29.2936 25.6923 28.8166 27.3293 27.6586 29.0204C26.6585 30.4824 25.6205 31.9394 23.9845 31.9694C22.3775 31.9984 21.8615 31.0164 20.0234 31.0164C18.1874 31.0164 17.6134 31.9394 16.0914 31.9984C14.5133 32.0584 13.3113 30.4174 12.3013 28.9614C10.2413 25.9813 8.66625 20.5412 10.7813 16.8691C11.8303 15.0451 13.7083 13.8901 15.7464 13.8611C17.2964 13.8311 18.7594 14.9041 19.7064 14.9041C20.6544 14.9041 22.4325 13.6141 24.3015 13.8031C25.0845 13.8361 27.2806 14.1191 28.6916 16.1841C28.5776 16.2541 26.0705 17.7142 26.0975 20.7502" fill="white"/>
<rect x="0.5" y="0.5" width="136" height="39" rx="4.5" stroke="url(#paint1_linear)"/>
<rect x="0.5" y="0.5" width="136" height="39" rx="4.5" stroke="url(#paint2_linear)"/>
<defs>
<linearGradient id="paint0_linear" x1="125.795" y1="1.33898" x2="86.2182" y2="84.8237" gradientUnits="userSpaceOnUse">
<stop stop-color="#5A60E7" stop-opacity="0.35"/>
<stop offset="1" stop-color="#1E1E28" stop-opacity="0"/>
</linearGradient>
<linearGradient id="paint1_linear" x1="-4.80408e-06" y1="-6.33185" x2="7.06166" y2="26.5489" gradientUnits="userSpaceOnUse">
<stop stop-color="#6171FF"/>
<stop offset="1" stop-color="#5A60E7" stop-opacity="0"/>
</linearGradient>
<linearGradient id="paint2_linear" x1="74.3218" y1="18.6758" x2="90.8121" y2="52.4339" gradientUnits="userSpaceOnUse">
<stop offset="0.4875" stop-color="#6171FF" stop-opacity="0"/>
<stop offset="1" stop-color="#6171FF"/>
</linearGradient>
</defs>
</svg>
