<svg width="40" height="40" viewBox="0 0 40 40" fill="none" xmlns="http://www.w3.org/2000/svg">
<path fill-rule="evenodd" clip-rule="evenodd" d="M19.1667 31.6667C26.0702 31.6667 31.6667 26.0702 31.6667 19.1667C31.6667 12.2631 26.0702 6.66669 19.1667 6.66669C12.2631 6.66669 6.66666 12.2631 6.66666 19.1667C6.66666 26.0702 12.2631 31.6667 19.1667 31.6667ZM22.0592 12.2299C22.966 12.6041 23.7892 13.1537 24.4811 13.8468C25.1764 14.536 25.7275 15.3555 26.1026 16.258C26.4778 17.1605 26.6695 18.128 26.6666 19.1046C26.665 23.2032 23.3139 26.5375 19.1983 26.5375H19.1949C17.948 26.537 16.7211 26.2259 15.6259 25.6325L11.6667 26.6667L12.7257 22.8157C12.0727 21.6879 11.7291 20.4095 11.7291 19.0996C11.7307 15.0011 15.0818 11.6667 19.1983 11.6667C20.18 11.6642 21.1524 11.8556 22.0592 12.2299ZM19.1958 25.2831H19.1983C22.6192 25.2831 25.4037 22.511 25.4054 19.1046C25.4079 18.2927 25.2487 17.4884 24.9369 16.7382C24.6252 15.9879 24.1672 15.3066 23.5893 14.7336C23.0145 14.1579 22.3306 13.7013 21.5773 13.3903C20.824 13.0793 20.0163 12.9201 19.2008 12.922C15.7765 12.922 12.992 15.6933 12.9903 19.0996C12.9888 20.2628 13.3179 21.4026 13.9395 22.3876L14.0868 22.6211L13.4603 24.9006L15.8098 24.287L16.036 24.4212C16.9925 24.9855 18.0839 25.2832 19.1958 25.2831ZM21.328 20.051C21.4994 20.1131 22.4162 20.5619 22.6034 20.6554C22.6396 20.6735 22.6735 20.6899 22.7049 20.705C22.8349 20.7677 22.9236 20.8105 22.9612 20.8732C23.0077 20.951 23.0077 21.3228 22.8522 21.7567C22.6966 22.1905 21.9512 22.5863 21.5926 22.6393C21.2706 22.6865 20.8638 22.7072 20.4171 22.5656C20.1467 22.4795 19.7989 22.3652 19.353 22.174C17.6018 21.4211 16.4186 19.7312 16.197 19.4147C16.1817 19.3929 16.171 19.3776 16.165 19.3696L16.1626 19.3663C16.0608 19.2307 15.4029 18.3543 15.4029 17.4478C15.4029 16.5924 15.8247 16.1445 16.0194 15.9378C16.0327 15.9236 16.045 15.9106 16.056 15.8986C16.1185 15.8279 16.1951 15.7708 16.2808 15.7309C16.3666 15.691 16.4597 15.6692 16.5543 15.6668C16.6733 15.6663 16.7923 15.6685 16.9112 15.6734C16.9244 15.674 16.938 15.6738 16.9521 15.6737C17.0612 15.6727 17.1972 15.6715 17.3305 15.9905C17.3827 16.1152 17.4594 16.3008 17.54 16.4961C17.6999 16.8831 17.8753 17.3078 17.9063 17.3699C17.9537 17.4627 17.9845 17.5712 17.9221 17.6953C17.9126 17.7142 17.9039 17.7319 17.8955 17.7489C17.8489 17.8436 17.8147 17.913 17.7357 18.005C17.7046 18.0412 17.6726 18.0802 17.6405 18.1192C17.5763 18.1972 17.5122 18.2752 17.4562 18.3304C17.3622 18.4232 17.2648 18.5233 17.3738 18.7096C17.4828 18.8959 17.8572 19.5037 18.4121 19.9964C19.0088 20.5258 19.5275 20.7496 19.79 20.8629C19.8411 20.8849 19.8825 20.9028 19.9129 20.9179C20.0993 21.0106 20.2082 20.9957 20.3172 20.8715C20.4262 20.7473 20.784 20.3292 20.9087 20.1437C21.0335 19.9583 21.1575 19.9889 21.328 20.051Z" fill="white"/>
</svg>
