<svg width="40" height="40" viewBox="0 0 40 40" fill="none" xmlns="http://www.w3.org/2000/svg">
<path d="M32.5 20C32.5 13.0975 26.9025 7.5 20 7.5C13.0975 7.5 7.5 13.0975 7.5 20C7.5 26.9025 13.0975 32.5 20 32.5C20.0734 32.5 20.1465 32.4985 20.2197 32.4971V22.7664H17.5342V19.6367H20.2197V17.3335C20.2197 14.6625 21.8503 13.2087 24.233 13.2087C25.374 13.2087 26.3547 13.2938 26.6406 13.3317V16.1233H24.9976C23.7014 16.1233 23.4504 16.7394 23.4504 17.6433V19.6367H26.5498L26.1459 22.7664H23.4504V32.0171C28.6752 30.5192 32.5 25.7056 32.5 20Z" fill="white"/>
</svg>
