<svg width="40" height="40" viewBox="0 0 40 40" fill="none" xmlns="http://www.w3.org/2000/svg">
<path d="M22.5602 20C22.5602 21.414 21.414 22.5603 20 22.5603C18.586 22.5603 17.4397 21.414 17.4397 20C17.4397 18.586 18.586 17.4398 20 17.4398C21.414 17.4398 22.5602 18.586 22.5602 20Z" fill="white"/>
<path fill-rule="evenodd" clip-rule="evenodd" d="M25.5851 15.7747C25.4703 15.4636 25.2872 15.182 25.0492 14.9509C24.8181 14.7129 24.5367 14.5298 24.2254 14.415C23.973 14.3169 23.5937 14.2002 22.8952 14.1684C22.1396 14.134 21.9131 14.1266 20.0001 14.1266C18.087 14.1266 17.8605 14.1338 17.105 14.1682C16.4065 14.2002 16.0271 14.3169 15.7749 14.415C15.4636 14.5298 15.182 14.7129 14.9511 14.9509C14.7131 15.182 14.53 15.4634 14.415 15.7747C14.3169 16.0271 14.2002 16.4065 14.1684 17.105C14.134 17.8605 14.1266 18.087 14.1266 20.0001C14.1266 21.9131 14.134 22.1396 14.1684 22.8952C14.2002 23.5937 14.3169 23.973 14.415 24.2254C14.53 24.5367 14.7129 24.8181 14.9509 25.0492C15.182 25.2872 15.4634 25.4703 15.7747 25.5851C16.0271 25.6834 16.4065 25.8001 17.105 25.8318C17.8605 25.8663 18.0868 25.8735 20 25.8735C21.9133 25.8735 22.1398 25.8663 22.8951 25.8318C23.5936 25.8001 23.973 25.6834 24.2254 25.5851C24.8503 25.3441 25.3441 24.8503 25.5851 24.2254C25.6832 23.973 25.7999 23.5937 25.8318 22.8952C25.8663 22.1396 25.8735 21.9131 25.8735 20.0001C25.8735 18.087 25.8663 17.8605 25.8318 17.105C25.8001 16.4065 25.6834 16.0271 25.5851 15.7747ZM20.0001 23.6788C17.9682 23.6788 16.3211 22.0319 16.3211 20C16.3211 17.968 17.9682 16.3211 20.0001 16.3211C22.0319 16.3211 23.679 17.968 23.679 20C23.679 22.0319 22.0319 23.6788 20.0001 23.6788ZM23.8245 17.0354C23.3497 17.0354 22.9647 16.6504 22.9647 16.1756C22.9647 15.7008 23.3497 15.3159 23.8245 15.3159C24.2993 15.3159 24.6842 15.7008 24.6842 16.1756C24.684 16.6504 24.2993 17.0354 23.8245 17.0354Z" fill="white"/>
<path fill-rule="evenodd" clip-rule="evenodd" d="M7.5 20C7.5 13.0975 13.0975 7.5 20 7.5C26.9025 7.5 32.5 13.0975 32.5 20C32.5 26.9025 26.9025 32.5 20 32.5C13.0975 32.5 7.5 26.9025 7.5 20ZM26.8008 24.7016C26.9782 24.245 27.0997 23.7233 27.1344 22.9593C27.1695 22.1938 27.1777 21.9493 27.1777 20C27.1777 18.0507 27.1695 17.8062 27.1346 17.0407C27.0997 16.2767 26.9784 15.755 26.8008 15.2984C26.6208 14.8195 26.3381 14.3857 25.9731 14.0271C25.6145 13.6619 25.1805 13.3792 24.7016 13.199C24.245 13.0218 23.7233 12.9005 22.9593 12.8658C22.1938 12.8307 21.9493 12.8223 20 12.8223C18.0507 12.8223 17.8062 12.8307 17.0407 12.8656C16.2767 12.9005 15.755 13.0218 15.2984 13.1992C14.8195 13.3794 14.3855 13.6619 14.0271 14.0271C13.6619 14.3855 13.3792 14.8195 13.199 15.2984C13.0216 15.755 12.9003 16.2767 12.8656 17.0407C12.8305 17.8062 12.8223 18.0507 12.8223 20C12.8223 21.9493 12.8305 22.1938 12.8658 22.9594C12.9005 23.7233 13.022 24.2452 13.1993 24.7016C13.3796 25.1805 13.6621 25.6145 14.0271 25.9729C14.3857 26.3381 14.8195 26.6206 15.2986 26.8008C15.755 26.9782 16.2769 27.0995 17.0407 27.1344C17.8064 27.1693 18.0507 27.1777 20.0002 27.1777C21.9495 27.1777 22.194 27.1693 22.9594 27.1344C23.7233 27.0995 24.2452 26.9782 24.7016 26.8008C25.6658 26.428 26.428 25.6658 26.8008 24.7016Z" fill="white"/>
</svg>
