<svg width="40" height="40" viewBox="0 0 40 40" fill="none" xmlns="http://www.w3.org/2000/svg">
<path d="M22.5943 20.0001L18.349 22.5944V17.4057L22.5943 20.0001Z" fill="white"/>
<path fill-rule="evenodd" clip-rule="evenodd" d="M7.5 20C7.5 13.0975 13.0975 7.5 20 7.5C26.9025 7.5 32.5 13.0975 32.5 20C32.5 26.9025 26.9025 32.5 20 32.5C13.0975 32.5 7.5 26.9025 7.5 20ZM27.489 23.7703C27.8106 22.5478 27.8106 20.0128 27.8106 20.0128C27.8106 20.0128 27.8236 17.4651 27.489 16.2427C27.3088 15.5736 26.7812 15.0459 26.1121 14.8658C24.8897 14.5312 20 14.5312 20 14.5312C20 14.5312 15.1103 14.5312 13.8879 14.853C13.2316 15.0331 12.691 15.5736 12.511 16.2427C12.1892 17.4651 12.1892 20 12.1892 20C12.1892 20 12.1892 22.5478 12.511 23.7573C12.6912 24.4264 13.2188 24.9541 13.8879 25.1342C15.1231 25.4688 20 25.4688 20 25.4688C20 25.4688 24.8897 25.4688 26.1121 25.147C26.7812 24.9669 27.3088 24.4394 27.489 23.7703Z" fill="white"/>
</svg>
