<svg width="40" height="40" viewBox="0 0 40 40" fill="none" xmlns="http://www.w3.org/2000/svg">
<path d="M20 7.5C13.0964 7.5 7.5 13.0964 7.5 20C7.5 26.9036 13.0964 32.5 20 32.5C26.9036 32.5 32.5 26.9036 32.5 20C32.5 13.0964 26.9036 7.5 20 7.5ZM24.8073 21.6029C24.8073 21.6029 25.9128 22.694 26.1849 23.2005C26.1927 23.2109 26.1966 23.2214 26.1992 23.2266C26.3099 23.4128 26.3359 23.5573 26.2812 23.6654C26.1901 23.8451 25.8776 23.9336 25.7708 23.9414H23.8177C23.6823 23.9414 23.3984 23.9062 23.0547 23.6693C22.7904 23.4844 22.5299 23.181 22.276 22.8854C21.8971 22.4453 21.569 22.0651 21.2383 22.0651C21.1963 22.065 21.1545 22.0716 21.1146 22.0846C20.8646 22.1654 20.5443 22.5221 20.5443 23.4727C20.5443 23.7695 20.3099 23.9401 20.1445 23.9401H19.25C18.9453 23.9401 17.3581 23.8333 15.9518 22.3503C14.2305 20.5339 12.681 16.8906 12.668 16.8568C12.5703 16.6211 12.7721 16.4948 12.9922 16.4948H14.9648C15.2279 16.4948 15.3138 16.6549 15.3737 16.7969C15.444 16.9622 15.7018 17.6198 16.125 18.3594C16.8112 19.5651 17.2318 20.0547 17.569 20.0547C17.6322 20.0539 17.6944 20.0379 17.75 20.0078C18.1901 19.763 18.1081 18.194 18.0885 17.8685C18.0885 17.8073 18.0872 17.1667 17.862 16.8594C17.7005 16.6367 17.4258 16.5521 17.2591 16.5208C17.3266 16.4277 17.4154 16.3523 17.5182 16.3008C17.8203 16.1497 18.3646 16.1276 18.9049 16.1276H19.2057C19.7917 16.1354 19.9427 16.1732 20.1549 16.2266C20.5846 16.3294 20.5938 16.6068 20.556 17.556C20.5443 17.8255 20.5326 18.1302 20.5326 18.4896C20.5326 18.5677 20.5286 18.651 20.5286 18.7396C20.5156 19.2227 20.5 19.7708 20.8411 19.9961C20.8856 20.024 20.9371 20.0389 20.9896 20.0391C21.1081 20.0391 21.4648 20.0391 22.431 18.3815C22.729 17.848 22.9879 17.2936 23.2057 16.7227C23.2253 16.6888 23.2826 16.5846 23.3503 16.5443C23.4002 16.5188 23.4556 16.5058 23.5117 16.5065H25.8307C26.0833 16.5065 26.2565 16.5443 26.2891 16.6419C26.3464 16.7969 26.2786 17.2695 25.2201 18.7031L24.7474 19.3268C23.7878 20.5846 23.7878 20.6484 24.8073 21.6029Z" fill="white"/>
</svg>
