<svg width="40" height="40" viewBox="0 0 40 40" fill="none" xmlns="http://www.w3.org/2000/svg">
<path fill-rule="evenodd" clip-rule="evenodd" d="M32.5 20C32.5 26.9031 26.9031 32.5 20 32.5C13.0969 32.5 7.5 26.9031 7.5 20C7.5 13.0969 13.0969 7.5 20 7.5C26.9031 7.5 32.5 13.0969 32.5 20ZM20.4479 16.7281C19.2323 17.2333 16.8021 18.2802 13.1583 19.8677C12.5667 20.1031 12.2562 20.3333 12.2281 20.5583C12.1802 20.9396 12.6573 21.0896 13.3052 21.2927C13.3937 21.3208 13.4854 21.349 13.5792 21.3802C14.2177 21.5875 15.076 21.8302 15.5219 21.8396C15.9271 21.8479 16.3792 21.6812 16.8781 21.3396C20.2823 19.0406 22.0396 17.8792 22.15 17.8542C22.2281 17.8365 22.3365 17.8135 22.4094 17.8792C22.4823 17.9437 22.475 18.0667 22.4677 18.1C22.4198 18.301 20.551 20.0396 19.5823 20.9396C19.2802 21.2198 19.0667 21.4187 19.0229 21.4646C18.925 21.5656 18.825 21.6625 18.7292 21.7552C18.1354 22.326 17.6917 22.7552 18.7542 23.4552C19.2646 23.7917 19.6729 24.0698 20.0802 24.3469C20.525 24.65 20.9688 24.9521 21.5437 25.3292C21.6896 25.425 21.8292 25.524 21.9656 25.6208C22.4833 25.9906 22.949 26.3219 23.524 26.2698C23.8573 26.2385 24.2031 25.925 24.3781 24.9885C24.7917 22.774 25.6062 17.9781 25.7948 16.001C25.8063 15.8369 25.7993 15.672 25.774 15.5094C25.7588 15.3781 25.6949 15.2572 25.5948 15.1708C25.4458 15.049 25.2146 15.0229 25.1104 15.025C24.6406 15.0333 23.9198 15.2844 20.4479 16.7281Z" fill="white"/>
</svg>
