<svg width="137" height="40" viewBox="0 0 137 40" fill="none" xmlns="http://www.w3.org/2000/svg">
<rect x="0.5" y="0.5" width="136" height="39" rx="4.5" fill="#2C2C2C"/>
<rect x="0.5" y="0.5" width="136" height="39" rx="4.5" fill="url(#paint0_linear)"/>
<path d="M50.8706 8.77154C50.8706 9.70362 50.5874 10.4501 50.0295 11.0068C49.388 11.6668 48.5525 11.9989 47.5287 11.9989C46.5503 11.9989 45.7148 11.6612 45.0294 10.9957C44.3427 10.3203 44 9.49153 44 8.49946C44 7.50739 44.3427 6.67857 45.0294 6.00882C45.7148 5.33767 46.5503 5 47.5287 5C48.0159 5 48.4803 5.09907 48.9235 5.28325C49.3653 5.46883 49.725 5.71998 49.9856 6.02974L49.3937 6.61857C48.9391 6.08974 48.3203 5.82882 47.5287 5.82882C46.8151 5.82882 46.1963 6.07439 45.6709 6.56973C45.1512 7.06647 44.8907 7.70971 44.8907 8.49946C44.8907 9.28921 45.1512 9.93803 45.6709 10.4348C46.1963 10.9245 46.8151 11.1757 47.5287 11.1757C48.2863 11.1757 48.9235 10.9245 49.4262 10.4292C49.7576 10.1013 49.9459 9.6492 49.9955 9.07154H47.5287V8.26504H50.8196C50.8592 8.43946 50.8706 8.60829 50.8706 8.77154Z" fill="white"/>
<path d="M56.0889 5.97632H52.9977V8.0972H55.7844V8.9037H52.9977V11.0246H56.0889V11.8464H52.1226V5.15448H56.0889V5.97632Z" fill="white"/>
<path d="M59.7721 11.8464H58.897V5.97632H57.001V5.15448H61.6696V5.97632H59.7721V11.8464Z" fill="white"/>
<path d="M65.0471 11.8464V5.15448H65.9208V11.8464H65.0471Z" fill="white"/>
<path d="M69.7931 11.8464H68.9251V5.97632H67.022V5.15448H71.6963V5.97632H69.7931V11.8464Z" fill="white"/>
<path d="M80.5339 10.9856C79.8641 11.6623 79.0343 12 78.0445 12C77.049 12 76.2193 11.6623 75.5495 10.9856C74.8811 10.3103 74.5483 9.48146 74.5483 8.50056C74.5483 7.51965 74.8811 6.69083 75.5495 6.01549C76.2193 5.33877 77.049 5.0011 78.0445 5.0011C79.0287 5.0011 79.8585 5.33877 80.5282 6.02108C81.2023 6.70199 81.535 7.52523 81.535 8.50056C81.535 9.48146 81.2023 10.3103 80.5339 10.9856ZM76.1966 10.4247C76.7007 10.9256 77.3138 11.1768 78.0445 11.1768C78.7695 11.1768 79.3883 10.9256 79.8868 10.4247C80.3895 9.92378 80.6443 9.28054 80.6443 8.50056C80.6443 7.72057 80.3895 7.07733 79.8868 6.57641C79.3883 6.07549 78.7695 5.82434 78.0445 5.82434C77.3138 5.82434 76.7007 6.07549 76.1966 6.57641C75.6939 7.07733 75.439 7.72057 75.439 8.50056C75.439 9.28054 75.6939 9.92378 76.1966 10.4247Z" fill="white"/>
<path d="M82.7612 11.8464V5.15448H83.8233L87.1254 10.359H87.1637L87.1254 9.07253V5.15448H87.9991V11.8464H87.0872L83.6293 6.38515H83.591L83.6293 7.67721V11.8464H82.7612Z" fill="white"/>
<path d="M71.4849 22.6976C69.1024 22.6976 67.156 24.4818 67.156 26.9436C67.156 29.3853 69.1024 31.1883 71.4849 31.1883C73.8725 31.1883 75.8189 29.3853 75.8189 26.9436C75.8189 24.4818 73.8725 22.6976 71.4849 22.6976ZM71.4849 29.5163C70.1776 29.5163 69.0529 28.4545 69.0529 26.9436C69.0529 25.4126 70.1776 24.3695 71.4849 24.3695C72.7922 24.3695 73.922 25.4126 73.922 26.9436C73.922 28.4545 72.7922 29.5163 71.4849 29.5163ZM62.0397 22.6976C59.652 22.6976 57.7108 24.4818 57.7108 26.9436C57.7108 29.3853 59.652 31.1883 62.0397 31.1883C64.426 31.1883 66.3686 29.3853 66.3686 26.9436C66.3686 24.4818 64.426 22.6976 62.0397 22.6976ZM62.0397 29.5163C60.7311 29.5163 59.6026 28.4545 59.6026 26.9436C59.6026 25.4126 60.7311 24.3695 62.0397 24.3695C63.347 24.3695 64.4717 25.4126 64.4717 26.9436C64.4717 28.4545 63.347 29.5163 62.0397 29.5163ZM50.8002 23.999V25.8032H55.1786C55.0505 26.8113 54.7082 27.5524 54.1832 28.069C53.5441 28.6928 52.5488 29.3853 50.8002 29.3853C48.1057 29.3853 45.9958 27.2455 45.9958 24.5941C45.9958 21.9428 48.1057 19.8029 50.8002 19.8029C52.2571 19.8029 53.3172 20.3632 54.0995 21.0893L55.3916 19.8179C54.2973 18.7898 52.8417 18 50.8002 18C47.1053 18 44 20.9583 44 24.5941C44 28.2299 47.1053 31.1883 50.8002 31.1883C52.7973 31.1883 54.2973 30.5444 55.4766 29.3367C56.6849 28.1476 57.0615 26.4757 57.0615 25.1257C57.0615 24.7064 57.026 24.3209 56.9626 23.999H50.8002ZM96.7597 25.3977C96.4034 24.4482 95.3041 22.6976 93.0648 22.6976C90.8458 22.6976 88.9983 24.4182 88.9983 26.9436C88.9983 29.3217 90.8268 31.1883 93.2778 31.1883C95.2597 31.1883 96.4034 29.9992 96.8738 29.3067L95.403 28.3422C94.9123 29.0484 94.244 29.5163 93.2778 29.5163C92.3179 29.5163 91.6294 29.0834 91.1882 28.2299L96.9588 25.8805L96.7597 25.3977ZM90.8762 26.8113C90.8268 25.1743 92.1683 24.3359 93.1295 24.3359C93.8826 24.3359 94.5217 24.7064 94.7347 25.2367L90.8762 26.8113ZM86.186 30.93H88.0829V18.4529H86.186V30.93ZM83.0794 23.6434H83.016C82.5899 23.1468 81.7772 22.6976 80.7476 22.6976C78.5869 22.6976 76.6114 24.5642 76.6114 26.9573C76.6114 29.3367 78.5869 31.1883 80.7476 31.1883C81.7772 31.1883 82.5899 30.7353 83.016 30.2238H83.0794V30.8327C83.0794 32.4559 82.1981 33.3281 80.7767 33.3281C79.6178 33.3281 78.8988 32.5046 78.6021 31.8121L76.9525 32.4896C77.428 33.615 78.6871 35 80.7767 35C83.0008 35 84.8774 33.7124 84.8774 30.5794V22.9559H83.0794V23.6434ZM80.9099 29.5163C79.6026 29.5163 78.5083 28.4396 78.5083 26.9573C78.5083 25.4613 79.6026 24.3695 80.9099 24.3695C82.1981 24.3695 83.2138 25.4613 83.2138 26.9573C83.2138 28.4396 82.1981 29.5163 80.9099 29.5163ZM105.641 18.4529H101.104V30.93H102.996V26.2024H105.641C107.742 26.2024 109.802 24.7064 109.802 22.3271C109.802 19.9489 107.737 18.4529 105.641 18.4529ZM105.69 24.4669H102.996V20.1885H105.69C107.103 20.1885 107.909 21.3426 107.909 22.3271C107.909 23.2928 107.103 24.4669 105.69 24.4669ZM117.385 22.6739C116.018 22.6739 114.596 23.2678 114.012 24.5842L115.691 25.2766C116.052 24.5842 116.717 24.3596 117.419 24.3596C118.4 24.3596 119.396 24.9397 119.411 25.9641V26.0951C119.069 25.9005 118.336 25.6123 117.434 25.6123C115.626 25.6123 113.784 26.5917 113.784 28.4196C113.784 30.0915 115.265 31.1683 116.93 31.1683C118.203 31.1683 118.905 30.6031 119.346 29.9455H119.411V30.91H121.238V26.1238C121.238 23.9116 119.559 22.6739 117.385 22.6739ZM117.157 29.5113C116.538 29.5113 115.676 29.2094 115.676 28.4545C115.676 27.4888 116.751 27.1182 117.682 27.1182C118.515 27.1182 118.905 27.2992 119.411 27.5375C119.263 28.6928 118.252 29.5113 117.157 29.5113ZM127.895 22.9472L125.721 28.356H125.656L123.408 22.9472H121.368L124.745 30.5058L122.818 34.7118H124.795L130 22.9472H127.895ZM110.842 30.93H112.739V18.4529H110.842V30.93Z" fill="white"/>
<path d="M25.2482 18.983L14.9027 8.60975L28.0652 16.166L25.2482 18.983ZM12.2035 8C11.5937 8.31875 11.1865 8.9 11.1865 9.6545V30.3403C11.1865 31.0948 11.5945 31.676 12.2035 31.9948L24.232 19.9948L12.2035 8ZM32.134 18.575L29.3732 16.9768L26.2937 20L29.3732 23.0233L32.1902 21.425C33.034 20.7553 33.034 19.2455 32.134 18.575ZM14.9035 31.391L28.066 23.8348L25.249 21.0178L14.9035 31.391Z" fill="white"/>
<rect x="0.5" y="0.5" width="136" height="39" rx="4.5" stroke="url(#paint1_linear)"/>
<rect x="0.5" y="0.5" width="136" height="39" rx="4.5" stroke="url(#paint2_linear)"/>
<defs>
<linearGradient id="paint0_linear" x1="125.795" y1="1.33898" x2="86.2182" y2="84.8237" gradientUnits="userSpaceOnUse">
<stop stop-color="#5A60E7" stop-opacity="0.35"/>
<stop offset="1" stop-color="#1E1E28" stop-opacity="0"/>
</linearGradient>
<linearGradient id="paint1_linear" x1="-4.80408e-06" y1="-6.33185" x2="7.06166" y2="26.5489" gradientUnits="userSpaceOnUse">
<stop stop-color="#6171FF"/>
<stop offset="1" stop-color="#5A60E7" stop-opacity="0"/>
</linearGradient>
<linearGradient id="paint2_linear" x1="74.3218" y1="18.6758" x2="90.8121" y2="52.4339" gradientUnits="userSpaceOnUse">
<stop offset="0.4875" stop-color="#6171FF" stop-opacity="0"/>
<stop offset="1" stop-color="#6171FF"/>
</linearGradient>
</defs>
</svg>
