<svg width="187" height="32" viewBox="0 0 187 32" fill="none" xmlns="http://www.w3.org/2000/svg">
<path d="M27.6068 9.53674e-07L32 4.39322L20.3932 16L16 11.6068L27.6068 9.53674e-07Z" fill="#222222"/>
<path d="M4.39321 32L0 27.6068L11.6068 16L16 20.3932L4.39321 32Z" fill="#222222"/>
<path d="M0 4.39322L4.39321 9.53674e-07L16 11.6068L11.6068 16L0 4.39322Z" fill="#222222"/>
<path d="M32 27.6068L27.6068 32L16 20.3932L20.3932 16L32 27.6068Z" fill="#222222"/>
<path d="M59.5922 14.3536C59.4872 14.3536 59.3939 14.3186 59.3123 14.2487C59.2423 14.167 59.2073 14.0737 59.2073 13.9688V13.8463C59.2073 13.6481 59.1374 13.4848 58.9974 13.3565C58.8691 13.2166 58.7058 13.1466 58.5076 13.1466H55.0964C54.8981 13.1466 54.7348 13.2166 54.6065 13.3565C54.4782 13.4848 54.4141 13.6481 54.4141 13.8463V19.6539C54.4141 19.8522 54.4782 20.0213 54.6065 20.1612C54.7348 20.2895 54.8981 20.3536 55.0964 20.3536H58.5076C58.7058 20.3536 58.8691 20.2895 58.9974 20.1612C59.1374 20.0213 59.2073 19.8522 59.2073 19.6539V19.5315C59.2073 19.4265 59.2423 19.339 59.3123 19.2691C59.3939 19.1874 59.4872 19.1466 59.5922 19.1466H61.2191C61.324 19.1466 61.4115 19.1874 61.4815 19.2691C61.5631 19.339 61.6039 19.4265 61.6039 19.5315V19.6539C61.6039 20.0854 61.5223 20.4877 61.359 20.8609C61.1958 21.2341 60.9742 21.5606 60.6943 21.8405C60.4144 22.1204 60.0878 22.342 59.7146 22.5052C59.3414 22.6685 58.9391 22.7501 58.5076 22.7501H55.0964C54.6765 22.7501 54.2742 22.6685 53.8893 22.5052C53.5161 22.342 53.1896 22.1204 52.9097 21.8405C52.6298 21.5606 52.4082 21.2341 52.2449 20.8609C52.0816 20.4877 52 20.0854 52 19.6539V13.8463C52 13.4148 52.0816 13.0125 52.2449 12.6393C52.4082 12.2662 52.6298 11.9396 52.9097 11.6597C53.1896 11.3799 53.5161 11.1583 53.8893 10.995C54.2742 10.8318 54.6765 10.7501 55.0964 10.7501H58.5076C58.9391 10.7501 59.3414 10.8318 59.7146 10.995C60.0878 11.1583 60.4144 11.3799 60.6943 11.6597C60.9742 11.9396 61.1958 12.2662 61.359 12.6393C61.5223 13.0125 61.6039 13.4148 61.6039 13.8463V13.9688C61.6039 14.0737 61.5631 14.167 61.4815 14.2487C61.4115 14.3186 61.324 14.3536 61.2191 14.3536H59.5922Z" fill="#222222"/>
<path d="M77.1253 22.4003C77.172 22.4936 77.172 22.5752 77.1253 22.6452C77.0787 22.7151 77.0029 22.7501 76.8979 22.7501H75.0261C74.9211 22.7501 74.8162 22.7151 74.7112 22.6452C74.6179 22.5752 74.5479 22.4936 74.5013 22.4003L72.4895 17.9571H70.1104V22.3653C70.1104 22.4702 70.0696 22.5635 69.988 22.6452C69.918 22.7151 69.8305 22.7501 69.7256 22.7501H68.0812C67.9762 22.7501 67.8829 22.7151 67.8013 22.6452C67.7313 22.5635 67.6963 22.4702 67.6963 22.3653V11.135C67.6963 11.03 67.7313 10.9425 67.8013 10.8726C67.8829 10.7909 67.9762 10.7501 68.0812 10.7501H74.2039C74.6354 10.7501 75.0378 10.8318 75.411 10.995C75.7842 11.1583 76.1107 11.3799 76.3906 11.6597C76.6705 11.9396 76.8921 12.2662 77.0554 12.6393C77.2186 13.0125 77.3003 13.4148 77.3003 13.8463V14.8609C77.3003 15.2108 77.2419 15.549 77.1253 15.8755C77.0204 16.1904 76.8688 16.4819 76.6705 16.7501C76.4722 17.0067 76.2332 17.2283 75.9533 17.4148C75.685 17.6014 75.3876 17.7414 75.0611 17.8347L77.1253 22.4003ZM74.2039 15.5606C74.4022 15.5606 74.5654 15.4965 74.6937 15.3682C74.8337 15.2283 74.9037 15.0592 74.9037 14.8609V13.8463C74.9037 13.6481 74.8337 13.4848 74.6937 13.3565C74.5654 13.2166 74.4022 13.1466 74.2039 13.1466H70.1104V15.5606H74.2039Z" fill="#222222"/>
<path d="M89.9002 10.7676C90.3317 10.7676 90.7341 10.8492 91.1073 11.0125C91.4805 11.1758 91.807 11.3974 92.0869 11.6772C92.3668 11.9571 92.5884 12.2837 92.7517 12.6568C92.9149 13.03 92.9966 13.4265 92.9966 13.8463V19.6714C92.9966 20.0912 92.9149 20.4877 92.7517 20.8609C92.5884 21.2341 92.3668 21.5606 92.0869 21.8405C91.807 22.1204 91.4805 22.342 91.1073 22.5052C90.7341 22.6685 90.3317 22.7501 89.9002 22.7501H86.489C86.0575 22.7501 85.6551 22.6685 85.2819 22.5052C84.9087 22.342 84.5822 22.1204 84.3023 21.8405C84.0224 21.5606 83.8008 21.2341 83.6376 20.8609C83.4743 20.4877 83.3926 20.0912 83.3926 19.6714V13.8463C83.3926 13.4265 83.4743 13.03 83.6376 12.6568C83.8008 12.2837 84.0224 11.9571 84.3023 11.6772C84.5822 11.3974 84.9087 11.1758 85.2819 11.0125C85.6551 10.8492 86.0575 10.7676 86.489 10.7676H89.9002ZM90.6 13.8463C90.6 13.6481 90.53 13.4848 90.39 13.3565C90.2618 13.2283 90.0985 13.1641 89.9002 13.1641H86.489C86.2907 13.1641 86.1216 13.2283 85.9817 13.3565C85.8534 13.4848 85.7893 13.6481 85.7893 13.8463V19.6714C85.7893 19.8697 85.8534 20.0329 85.9817 20.1612C86.1216 20.2895 86.2907 20.3536 86.489 20.3536H89.9002C90.0985 20.3536 90.2618 20.2895 90.39 20.1612C90.53 20.0329 90.6 19.8697 90.6 19.6714V13.8463Z" fill="#222222"/>
<path d="M106.664 14.3536C106.559 14.3536 106.465 14.3186 106.384 14.2487C106.314 14.167 106.279 14.0737 106.279 13.9688V13.8463C106.279 13.6481 106.215 13.4848 106.086 13.3565C105.958 13.2166 105.795 13.1466 105.597 13.1466H102.168C101.981 13.1466 101.818 13.2166 101.678 13.3565C101.55 13.4848 101.486 13.6481 101.486 13.8463V14.8609C101.486 15.0592 101.55 15.2283 101.678 15.3682C101.818 15.4965 101.981 15.5606 102.168 15.5606H105.597C106.016 15.5606 106.413 15.6423 106.786 15.8055C107.159 15.9688 107.486 16.1904 107.766 16.4702C108.046 16.7501 108.267 17.0767 108.431 17.4498C108.594 17.823 108.675 18.2195 108.675 18.6393V19.6539C108.675 20.0854 108.594 20.4877 108.431 20.8609C108.267 21.2341 108.046 21.5606 107.766 21.8405C107.486 22.1204 107.159 22.342 106.786 22.5052C106.413 22.6685 106.016 22.7501 105.597 22.7501H102.168C101.748 22.7501 101.351 22.6685 100.978 22.5052C100.605 22.342 100.279 22.1204 99.9986 21.8405C99.7187 21.5606 99.4972 21.2341 99.3339 20.8609C99.1706 20.4877 99.089 20.0854 99.089 19.6539V19.5315C99.089 19.4265 99.124 19.339 99.1939 19.2691C99.2756 19.1874 99.3689 19.1466 99.4738 19.1466H101.101C101.206 19.1466 101.293 19.1874 101.363 19.2691C101.445 19.339 101.486 19.4265 101.486 19.5315V19.6539C101.486 19.8522 101.55 20.0213 101.678 20.1612C101.818 20.2895 101.981 20.3536 102.168 20.3536H105.597C105.795 20.3536 105.958 20.2895 106.086 20.1612C106.215 20.0213 106.279 19.8522 106.279 19.6539V18.6393C106.279 18.4411 106.215 18.2778 106.086 18.1495C105.958 18.0213 105.795 17.9571 105.597 17.9571H102.168C101.748 17.9571 101.351 17.8755 100.978 17.7122C100.605 17.549 100.279 17.3274 99.9986 17.0475C99.7187 16.7676 99.4972 16.4411 99.3339 16.0679C99.1706 15.6831 99.089 15.2807 99.089 14.8609V13.8463C99.089 13.4148 99.1706 13.0125 99.3339 12.6393C99.4972 12.2662 99.7187 11.9396 99.9986 11.6597C100.279 11.3799 100.605 11.1583 100.978 10.995C101.351 10.8318 101.748 10.7501 102.168 10.7501H105.597C106.016 10.7501 106.413 10.8318 106.786 10.995C107.159 11.1583 107.486 11.3799 107.766 11.6597C108.046 11.9396 108.267 12.2662 108.431 12.6393C108.594 13.0125 108.675 13.4148 108.675 13.8463V13.9688C108.675 14.0737 108.64 14.167 108.57 14.2487C108.5 14.3186 108.413 14.3536 108.308 14.3536H106.664Z" fill="#222222"/>
<path d="M122.36 14.3536C122.255 14.3536 122.162 14.3186 122.08 14.2487C122.01 14.167 121.975 14.0737 121.975 13.9688V13.8463C121.975 13.6481 121.911 13.4848 121.783 13.3565C121.654 13.2166 121.491 13.1466 121.293 13.1466H117.864C117.678 13.1466 117.514 13.2166 117.374 13.3565C117.246 13.4848 117.182 13.6481 117.182 13.8463V14.8609C117.182 15.0592 117.246 15.2283 117.374 15.3682C117.514 15.4965 117.678 15.5606 117.864 15.5606H121.293C121.713 15.5606 122.109 15.6423 122.482 15.8055C122.856 15.9688 123.182 16.1904 123.462 16.4702C123.742 16.7501 123.964 17.0767 124.127 17.4498C124.29 17.823 124.372 18.2195 124.372 18.6393V19.6539C124.372 20.0854 124.29 20.4877 124.127 20.8609C123.964 21.2341 123.742 21.5606 123.462 21.8405C123.182 22.1204 122.856 22.342 122.482 22.5052C122.109 22.6685 121.713 22.7501 121.293 22.7501H117.864C117.444 22.7501 117.048 22.6685 116.675 22.5052C116.301 22.342 115.975 22.1204 115.695 21.8405C115.415 21.5606 115.193 21.2341 115.03 20.8609C114.867 20.4877 114.785 20.0854 114.785 19.6539V19.5315C114.785 19.4265 114.82 19.339 114.89 19.2691C114.972 19.1874 115.065 19.1466 115.17 19.1466H116.797C116.902 19.1466 116.989 19.1874 117.059 19.2691C117.141 19.339 117.182 19.4265 117.182 19.5315V19.6539C117.182 19.8522 117.246 20.0213 117.374 20.1612C117.514 20.2895 117.678 20.3536 117.864 20.3536H121.293C121.491 20.3536 121.654 20.2895 121.783 20.1612C121.911 20.0213 121.975 19.8522 121.975 19.6539V18.6393C121.975 18.4411 121.911 18.2778 121.783 18.1495C121.654 18.0213 121.491 17.9571 121.293 17.9571H117.864C117.444 17.9571 117.048 17.8755 116.675 17.7122C116.301 17.549 115.975 17.3274 115.695 17.0475C115.415 16.7676 115.193 16.4411 115.03 16.0679C114.867 15.6831 114.785 15.2807 114.785 14.8609V13.8463C114.785 13.4148 114.867 13.0125 115.03 12.6393C115.193 12.2662 115.415 11.9396 115.695 11.6597C115.975 11.3799 116.301 11.1583 116.675 10.995C117.048 10.8318 117.444 10.7501 117.864 10.7501H121.293C121.713 10.7501 122.109 10.8318 122.482 10.995C122.856 11.1583 123.182 11.3799 123.462 11.6597C123.742 11.9396 123.964 12.2662 124.127 12.6393C124.29 13.0125 124.372 13.4148 124.372 13.8463V13.9688C124.372 14.0737 124.337 14.167 124.267 14.2487C124.197 14.3186 124.109 14.3536 124.004 14.3536H122.36Z" fill="#222222"/>
<path d="M136.989 10.7501C137.409 10.7501 137.806 10.8318 138.179 10.995C138.552 11.1583 138.879 11.3799 139.158 11.6597C139.438 11.9396 139.66 12.2662 139.823 12.6393C139.986 13.0125 140.068 13.4148 140.068 13.8463V14.8609C140.068 15.2224 140.01 15.5606 139.893 15.8755C139.777 16.1904 139.619 16.4819 139.421 16.7501C139.619 17.0183 139.777 17.3099 139.893 17.6248C140.01 17.9396 140.068 18.2778 140.068 18.6393V19.6539C140.068 20.0854 139.986 20.4877 139.823 20.8609C139.66 21.2341 139.438 21.5606 139.158 21.8405C138.879 22.1204 138.552 22.342 138.179 22.5052C137.806 22.6685 137.409 22.7501 136.989 22.7501H130.849C130.744 22.7501 130.657 22.7151 130.587 22.6452C130.517 22.5635 130.482 22.4702 130.482 22.3653V11.135C130.482 11.03 130.517 10.9425 130.587 10.8726C130.657 10.7909 130.744 10.7501 130.849 10.7501H136.989ZM132.878 15.5431H136.989C137.176 15.5431 137.333 15.479 137.462 15.3507C137.601 15.2224 137.671 15.0592 137.671 14.8609V13.8463C137.671 13.6481 137.601 13.4848 137.462 13.3565C137.333 13.2166 137.176 13.1466 136.989 13.1466H132.878V15.5431ZM137.671 18.6393C137.671 18.4411 137.601 18.2778 137.462 18.1495C137.333 18.0213 137.176 17.9571 136.989 17.9571H132.878V20.3536H136.989C137.176 20.3536 137.333 20.2895 137.462 20.1612C137.601 20.0213 137.671 19.8522 137.671 19.6539V18.6393Z" fill="#222222"/>
<path d="M152.598 10.7501C152.703 10.7501 152.803 10.7851 152.896 10.8551C153.001 10.925 153.071 11.0067 153.106 11.1L155.625 17.3624C155.66 17.4557 155.689 17.5781 155.712 17.7297C155.747 17.8697 155.765 17.9921 155.765 18.0971V22.3653C155.765 22.4702 155.724 22.5635 155.642 22.6452C155.572 22.7151 155.485 22.7501 155.38 22.7501H153.736C153.631 22.7501 153.537 22.7151 153.456 22.6452C153.386 22.5635 153.351 22.4702 153.351 22.3653V20.3536H148.557V22.3653C148.557 22.4702 148.517 22.5635 148.435 22.6452C148.365 22.7151 148.278 22.7501 148.173 22.7501H146.546C146.441 22.7501 146.347 22.7151 146.266 22.6452C146.196 22.5635 146.161 22.4702 146.161 22.3653V18.0971C146.161 17.9921 146.173 17.8697 146.196 17.7297C146.231 17.5781 146.266 17.4557 146.301 17.3624L148.802 11.1C148.849 11.0067 148.919 10.925 149.012 10.8551C149.117 10.7851 149.222 10.7501 149.327 10.7501H152.598ZM148.645 17.9571H153.263L151.339 13.1466H150.569L148.645 17.9571Z" fill="#222222"/>
<path d="M170.936 22.7501H162.749C162.644 22.7501 162.551 22.7151 162.469 22.6452C162.399 22.5635 162.365 22.4702 162.365 22.3653V11.135C162.365 11.03 162.399 10.9425 162.469 10.8726C162.551 10.7909 162.644 10.7501 162.749 10.7501H164.376C164.481 10.7501 164.569 10.7909 164.639 10.8726C164.72 10.9425 164.761 11.03 164.761 11.135V20.3536H170.936C171.041 20.3536 171.129 20.3944 171.199 20.4761C171.269 20.546 171.304 20.6335 171.304 20.7385V22.3653C171.304 22.4702 171.269 22.5635 171.199 22.6452C171.129 22.7151 171.041 22.7501 170.936 22.7501Z" fill="#222222"/>
<path d="M186.633 22.7501H178.446C178.341 22.7501 178.247 22.7151 178.166 22.6452C178.096 22.5635 178.061 22.4702 178.061 22.3653V11.135C178.061 11.03 178.096 10.9425 178.166 10.8726C178.247 10.7909 178.341 10.7501 178.446 10.7501H180.073C180.178 10.7501 180.265 10.7909 180.335 10.8726C180.417 10.9425 180.457 11.03 180.457 11.135V20.3536H186.633C186.738 20.3536 186.825 20.3944 186.895 20.4761C186.965 20.546 187 20.6335 187 20.7385V22.3653C187 22.4702 186.965 22.5635 186.895 22.6452C186.825 22.7151 186.738 22.7501 186.633 22.7501Z" fill="#222222"/>
</svg>
