<svg width="18" height="24" viewBox="0 0 18 24" fill="none" xmlns="http://www.w3.org/2000/svg">
<path d="M7.18006 7.80035C6.54886 7.80035 5.94351 8.0511 5.49718 8.49743C5.05085 8.94375 4.80011 9.5491 4.80011 10.1803C4.80011 10.4193 4.84718 10.656 4.93865 10.8768C5.03011 11.0976 5.16417 11.2982 5.33316 11.4672C5.50216 11.6362 5.7028 11.7703 5.9236 11.8617C6.14441 11.9532 6.38107 12.0003 6.62007 12.0003H11.38C11.619 12.0003 11.8556 11.9532 12.0765 11.8617C12.2973 11.7703 12.4979 11.6362 12.6669 11.4672C12.8359 11.2982 12.9699 11.0976 13.0614 10.8768C13.1529 10.656 13.1999 10.4193 13.1999 10.1803C13.1999 9.5491 12.9492 8.94375 12.5029 8.49743C12.0565 8.0511 11.4512 7.80035 10.82 7.80035H7.18006ZM6.20008 10.1803C6.20008 9.9204 6.30333 9.67114 6.48711 9.48736C6.67089 9.30357 6.92016 9.20033 7.18006 9.20033H10.82C11.0799 9.20033 11.3292 9.30357 11.5129 9.48736C11.6967 9.67114 11.8 9.9204 11.8 10.1803C11.8 10.2917 11.7557 10.3985 11.677 10.4773C11.5982 10.5561 11.4914 10.6003 11.38 10.6003H6.62007C6.50869 10.6003 6.40186 10.5561 6.32309 10.4773C6.24433 10.3985 6.20008 10.2917 6.20008 10.1803Z" fill="#222222"/>
<path d="M8.99999 0.800476C8.07175 0.800476 7.18153 1.16922 6.52517 1.82558C5.8688 2.48195 5.50006 3.37217 5.50006 4.30041V4.36201C4.03776 5.03244 2.79868 6.10862 1.93008 7.46264C1.06148 8.81666 0.59989 10.3916 0.600159 12.0003V19.0001C0.600159 20.114 1.04265 21.1823 1.83029 21.9699C2.61792 22.7575 3.68619 23.2 4.80008 23.2H13.1999C14.3138 23.2 15.3821 22.7575 16.1697 21.9699C16.9573 21.1823 17.3998 20.114 17.3998 19.0001V12.0003C17.4001 10.3916 16.9385 8.81666 16.0699 7.46264C15.2013 6.10862 13.9622 5.03244 12.4999 4.36201V4.30041C12.4999 3.37217 12.1312 2.48195 11.4748 1.82558C10.8185 1.16922 9.92823 0.800476 8.99999 0.800476ZM15.9999 14.8002H2.00013V12.0003C2.00013 10.1438 2.73761 8.36334 4.05034 7.05061C5.36307 5.73788 7.14352 5.00039 8.99999 5.00039C10.8565 5.00039 12.6369 5.73788 13.9496 7.05061C15.2624 8.36334 15.9999 10.1438 15.9999 12.0003V14.8002ZM4.80008 18.3001C4.80008 18.4858 4.87383 18.6638 5.0051 18.7951C5.13637 18.9264 5.31441 19.0001 5.50006 19.0001C5.68571 19.0001 5.86375 18.9264 5.99503 18.7951C6.1263 18.6638 6.20005 18.4858 6.20005 18.3001V16.2002H15.9999V19.0001C15.9999 19.7427 15.7049 20.4549 15.1798 20.98C14.6547 21.5051 13.9425 21.8001 13.1999 21.8001H4.80008C4.05748 21.8001 3.34531 21.5051 2.82022 20.98C2.29512 20.4549 2.00013 19.7427 2.00013 19.0001V16.2002H4.80008V18.3001ZM8.99999 3.60042C8.29161 3.60042 7.60422 3.68862 6.94763 3.85242C7.04919 3.38357 7.30822 2.96363 7.68162 2.66245C8.05501 2.36128 8.52027 2.19703 8.99999 2.19703C9.47971 2.19703 9.94497 2.36128 10.3184 2.66245C10.6918 2.96363 10.9508 3.38357 11.0524 3.85242C10.3944 3.68862 9.70838 3.60042 8.99999 3.60042Z" fill="#222222"/>
</svg>
